<?xml version="1.0" encoding="iso-8859-1"?>
<!-- Generator: Adobe Illustrator 30.4.0, SVG Export Plug-In . SVG Version: 9.03 Build 0)  -->
<svg version="1.1" id="Layer_1" xmlns="http://www.w3.org/2000/svg" xmlns:xlink="http://www.w3.org/1999/xlink" x="0px" y="0px"
	 viewBox="0 0 480 123.6" style="enable-background:new 0 0 480 123.6;" xml:space="preserve">
<path d="M58.936,49.045l-2.671,0.216l-1.579-0.012l-3.158,0.205l-2.105,0.13l0.216-1.373l-1.14-0.105l0.072-0.999
	c1.068-0.498,2.088-0.763,3.256-0.973l3.009-0.54c0.773-0.139,1.393-0.303,2.098-0.641c-1.547-0.226-2.827-0.114-4.255,0.224
	l-3.349,0.794c-0.676,0.16-1.299,0.233-2.027,0.025c-0.222-2.157,1.298-2.599,1.785-4.157l-0.617-3.605
	c-0.48-2.806-3.068-3.688-3.967-7.146c-0.641-2.467,2.559-3.456,5.509-4.667c0.472-0.194,1.483,0,2.027-0.05
	c0.926-0.085,1.616-0.218,2.446,0.06c2.463,0.825,6.194-0.407,8.444,2.605c0.36,0.481,0.678,1.234,0.721,1.88l0.181,2.699
	c0.026,0.39-0.286,1.326-0.64,1.533l-2.987,1.742c-1.82,1.062-2.857,4.242-2.455,4.825l1.708,2.476l0.517,0.972
	c0.547,0.254,0.972,0.665,1.197,1.234l-1.86,0.846c-0.114-0.468-0.456-1.05-0.757-1.002l-5.801,0.913l-1.887,0.453
	c-0.109,0.026-0.438,0.244-0.534,0.311c-0.144,0.1,0.423,0.441,0.628,0.422l5.703-0.53C57.659,47.716,58.471,47.403,58.936,49.045z
	 M54.712,30.389c0.125-0.171,0.713-0.602,0.558-0.718l-0.552-0.416c-0.373-0.281-0.748-0.602-0.919-0.891l-0.366-0.617l-1.125,2.305
	l-0.178,0.366c-0.039,0.08-0.384,0.123-0.402,0.037l-0.104-0.499c-0.164-0.783-0.051-1.289,0.301-2.315
	c-1.888-0.066-4.541,0.824-6.015,2.333c0.276,1.247,1.022,2.288,1.695,3.268l0.578,0.842l1.232,1.549
	c-0.215-1.114-0.111-1.79,0.552-2.471c0.892-0.917,2.078-1.433,3.341-0.854L54.712,30.389z M56.821,36.142
	c-0.863,0.722-0.964,2.173-0.238,3.291l0.915-1.936c0.284-0.602,1.028-1.239,1.655-1.604l1.548-0.901
	c0.443-0.258,1.128-0.714,1.544-1.094c0.641-2.07-0.052-4.574-2.172-5.445c-1.537-0.632-3.408-0.529-5.09-0.563
	c0.434,0.62,0.85,1.122,0.87,1.49c0.046,0.854-1.363,1.863-0.76,2.35l1.26,1.017l1.342-1.419c0.157-0.166,0.877-0.084,1.036,0.091
	c0.604,0.665,0.339,2.93-0.451,3.985C58.072,35.681,57.109,35.901,56.821,36.142z M53.738,43.624l1.441-0.139l0.544-0.128
	c0.096-0.023-0.274-0.26-0.409-0.343l-0.335-3.193c-0.078-0.747-0.54-2.151-0.258-2.792l0.911-2.066
	c-0.025-0.783-0.452-1.717-1.191-2.169l0.485,2.048c0.098,0.412-1.003,0.841-1.29,0.557c-0.191-0.946-0.778-2.091-1.791-2.243
	c-0.427-0.064-1.138,0.52-1.261,0.892c-0.133,0.402,0.154,1.153,0.432,1.529l1.881,2.543c0.339,0.458,0.595,1.552,0.632,2.154
	L53.738,43.624z M51.449,43.906c0.206-0.06,0.786-0.309,0.782-0.509l-0.015-0.65c-0.06-2.641,0.203-4.051-2.244-6.377l0.237,3.024
	c0.062,0.788,0.6,2.216,0.256,2.921l-1.07,2.189L51.449,43.906z"/>
<path d="M445.868,73.1l-3.044,0.41l-1.029,0.426l-0.319-1.461c1.208-0.851,1.404-2.193,1.157-3.599l-0.388-2.208l-0.021-8.746
	c-0.564-0.199-0.941-0.976-0.654-1.328c0.195-0.238,0.894-0.545,1.136-0.57c0.836,0.251,1.559,0.15,2.408,0.119l2.688-0.097
	l2.43-0.151l4.054-0.308l2.457-0.002l3.387-0.589c0.432-0.075,1.123-0.15,1.385,0.077c0.772,0.667,0.864,2.447,0.72,3.95
	l-0.255,2.669c-0.225,2.349-0.687,4.476-1.497,6.702c-0.497,1.365,0.657,2.022,0.448,2.253l-0.54,0.597
	c-0.599,0.663,0.262,1.725-0.066,2.598c-0.077,0.205-0.71,0.295-0.95,0.25l-2.036-0.378c-0.96-0.178-2.037,0.004-3.015-0.015
	l-2.32-0.044l-2.645-0.157l-2.864-0.065C446.409,73.43,445.962,73.162,445.868,73.1z M448.901,61.282l-1.147,0.12
	c-0.063-0.697,0.02-1.425,0.25-2.044l1.063,0.116l2.009,1.204l0.859-0.305c0.319-0.113,1.103,1.217,1,2.28
	c-0.099,1.023-1.138,1.946-2.157,2.342l1.016,1.816l2.732-1.96c-0.561-1.234-1.19-2.719-0.545-3.803
	c0.466-0.783,1.11-1.351,1.282-2.338c1.003,0.519,1.177,1.663,0.514,2.568c-0.321,0.439-0.82,1.087-0.995,1.652
	c-0.209,0.676,0.789,1.878,1.401,1.901c1.381,0.051,1.668-0.628,3.309,2.451c0.615-1.099,0.87-2.078,1.031-3.166l0.736-4.968
	l-0.123-2.849l-5.265,0.63l-4.442,0.343l-5.006,0.399l-3.102,0.055l-0.088,2.499l-0.082,5.041l0.25,2.986
	c0.471-0.553,0.741-1.356,0.827-2.052l0.995-1.141l0.697-0.847l-1.796-1.184c-0.323-0.213-0.295-1.292-0.197-1.604l2.559,0.954
	c0.363,0.135,0.891,0.362,1.24,0.657c0.242,0.205,0.228,1.012,0.125,1.305l2.657,3.899c0.318-0.248,0.405-0.858,0.194-1.149
	l-0.958-1.322c-0.661-0.911-0.867-2.224-1.112-3.349L448.901,61.282z M450.93,72.028l-0.577-1.65l-1.048,0.745l-0.391-1.428
	c1.18-1.074-0.326-2.782-2.009-4.107c-1.065,0.663-1.697,1.625-2.058,2.768l-0.682,2.163c-0.069,0.22,0.083,0.925,0.294,0.947
	l0.737,0.076l1.936,0.2L450.93,72.028z M453.696,72.207l2.512,0.014l3.062,0.433l-0.093-1.868c-0.081-1.625-0.387-3.38-1.702-4.427
	l-2.006,0.341c-0.595,0.101-1.665,0.718-2.123,1.128l-2.322,2.076l0.975,1.838C452.194,72.11,453.248,72.205,453.696,72.207z"/>
<path d="M423.579,73.799l-2.382,0.063l-2.222-0.095l-2.791,0.017l-2.138-0.043l-2.458-0.049l-3.001-0.06l0.037-1.466l2.053-0.013
	l-0.338-3.501l-0.21-2.15l-0.332-3.025l-0.461-3.743l-0.112-3.09l-0.004-0.787c-0.001-0.233-0.894-0.101-1.109-0.852
	c-0.053-0.185,0.337-0.317,0.568-0.335l1.716-0.132l2.229-0.326l1.981-0.237l2.529-0.392l4.717-0.128l1.667,0.066l1.324,0.382
	l-0.377,0.216l-1.941,0.215l1.373,2.287c0.227,0.379,0.839,0.938,1.116,0.984l0.558-1.136l0.467,1.647l1.215,0.91l-1.012,0.13
	c-0.24,0.033-0.206,0.683-0.225,0.971l-0.453,6.805l-0.19,3.367c-0.067,1.192,0.133,2.854,0.32,4.094
	C425.161,75.232,424.478,73.775,423.579,73.799z M418.431,63.942l-3.233,0.487c1.5,1.434,2.89-0.635,6.016,0.325l1.202,0.369
	c0.407,0.125,0.555,1.584,0.229,1.697l-0.666,0.232l0.767,0.349c0.297,0.135,0.295,0.995,0.27,1.324l-2.308,0.217l-1.572,0.206
	l-1.984,0.374l-1.346,0.171l-2.178,0.209l-2.072-0.192l0.61,2.514l4.533,0.453l3.052-0.131l4.609,0.166l-0.016-3.347l0.195-7.485
	c0.017-0.633,0.178-1.241-0.129-1.868l-5.452,1.029c-0.226,0.043-0.767-0.005-0.901-0.176s-0.093-0.67,0.006-0.91l1.677-4.083
	c0.078-0.19,0.038-0.77-0.086-0.935c-0.124-0.165-0.641-0.382-0.846-0.363l-3.337,0.307l-2.395,0.384l-2.56,0.411l0.211,4.825
	l0.593,4.979l0.21,3.095l2.731-0.48l3.045-0.391l4.783-0.614c-0.351-0.564-0.887-0.815-1.361-0.806l-3.324,0.062
	c-1.516,0.028-2.956,0.276-4.5-0.254c-0.021-0.538,0.126-1.295,0.27-1.701l-1.042-0.706c0.276-0.983,1.069-1.615,2.186-1.764
	l0.239,0.982l0.952-0.078l3.447-0.44l1.6-0.283l1.231-0.318l0.406,1.364c-0.279,0.128-0.923,0.365-1.205,0.407L418.431,63.942z
	 M424.283,58.838c0.043-0.03,0.002-0.086-0.478-0.342l-1.612-2.372c-0.183-0.27-0.719-0.796-0.918-0.976l-1.38,4.355
	c0.553-0.202,1.311-0.446,1.709-0.475L424.283,58.838z"/>
<path d="M37.68,93.094l-6.487,0.072l-2.089,0.268l-2.867,0.14l0.153-0.869c0.038-0.218,0.652-0.364,0.884-0.396l2.04-0.275
	c-0.173-0.12-0.999-0.739-1.039-1.122l-0.104-6.888c-0.022-1.427-0.546-2.695-0.508-4.093c0.022-0.824-0.068-1.366-0.281-2.238
	c0.236-0.35,1.19-0.898,1.713-0.996l1.931-0.363l1.579-0.265c1.013-0.17,2.297-0.105,3.372,0.088l3.223,0.58l3.898,0.959
	c2.437,0.6,3.081-0.121,3.869,0.212c0.745,0.315-0.688,2.878-1.145,5.11l-0.427,2.081c-0.138,0.673-0.236,1.63-0.108,2.236
	l0.28,1.319c-1.629,0.953,0.079,2.585-0.832,4.612L37.68,93.094z M35.249,82.098l0.27-1.009l-2.808-1.443l0.14-1.706
	c1.589,0.772,2.683,1.483,3.87,2.498l1.232-0.661l1.495-1.834l-2.336-0.404c-1.669-0.289-3.443-0.537-5.083-0.202l-2.705,0.552
	c-0.24,1.063-0.256,2.114-0.089,3.209l0.346,2.264l0.201,1.532l0.076,2.394c1.285-1.084,2.303-2.113,3.381-3.379l1.228-0.043
	c-0.889-0.829-0.995-1.714-0.359-2.473L35.249,82.098z M43.722,85.459l1.633-6.274c-1.188-0.032-2.346-0.229-3.501-0.527
	l-1.737-0.449c-0.078-0.02-0.269,0.211-0.209,0.265l0.406,0.366l-0.946,1.856c0.984,1.07,1.634,2.467,1.251,3.851l1.25-0.426
	L43.722,85.459z M37.381,84.42c0.635-0.26,1.491-0.723,1.822-1.143c0.22-0.279-0.374-1.167-0.663-1.356
	c-0.204-0.433-0.417-0.412-0.349,0.074l-0.706,0.676l-0.324,1.137C36.653,83.902,36.956,84.532,37.381,84.42z M36.527,91.851
	l1.215,0l0.751,0c0.122,0-0.077-0.493-0.119-0.618l-0.838-2.483c-0.293-0.87-0.501-1.853-1.134-2.561
	c-0.387-0.432-1.726-0.49-2.266-0.291l-3.73,3.561c-0.462,0.442-0.541,1.221-0.384,1.791l0.109,0.666l3.932-0.066L36.527,91.851z
	 M40.516,91.845l2.922,0.042l0.186-4.345c0.035-0.809-0.98-2.036-1.836-1.35l-1.96,1.571l-0.963,0.582l0.593,2.293
	C39.56,91.032,40.126,91.789,40.516,91.845z"/>
<path d="M170.491,37.403l2.396-2.761l2.27-2.035l1.23-0.98l-0.242-1.067l-1.983,1.477c-1.847,1.376-3.59,2.559-5.173,4.236
	l-1.056,1.118l-2.287,2.198l-1.94,1.498l-1.475,1.39c-0.173,0.163-0.611,0.456-0.833,0.489c-0.265,0.04-0.72-0.416-0.886-0.719
	c0.25-0.37,0.626-0.896,0.866-1.072l1.261-0.926l1.303-0.613l1.693-1.653l1.409-1.522l1.354-1.47l1.156-1.014l2.664-2.164
	l1.256-0.895l2.612-2.17l1.84-0.469l1.928-0.436c0.547-0.124,1.738,0.048,2.156-0.277l1.401-1.087
	c1.059,0.415,1.756,1.312,1.563,2.502l-1.071,0.824c-0.117,0.979-0.374,1.734-0.957,2.417l-0.167,1.019l-1.135,1.344
	c-0.437,0.517-0.545,1.277-0.663,2.184c-0.104,0.086-0.784-0.06-1.186-0.214l-1.221,1.125l-2.501,2.304l-1.718,1.635l-2.68,2.622
	c-0.792,0.775-1.684,1.857-3.148,2.101l-1.396,0.909l-1.378-1.268l-0.951,1.179c-0.433-0.282-0.956-1.214-0.779-1.632l0.442-1.046
	c-0.896-0.505-1.26-1.379-0.592-2.171l1.307,1.586l1.319-1.773l1.132-1.439l1.459-1.698L170.491,37.403z M179.378,32.705
	c0.108,0.332,0.799,0.977,1.014,1.205l0.789-1.189c-1.329-1.551-1.244-3.727-1.944-3.51l-2.649,0.822l1.571,1.563l0.668-0.585
	L179.378,32.705z M175.684,35.866c0.499-0.456,0.899-0.843,1.208-1.346l0.25-1.259c-2.441,1.787-4.368,3.659-6.201,5.974
	l0.071,0.468l1.522-1.09l1.669-1.394L175.684,35.866z M177.437,36.563l2.103-1.93l-0.83-1.097l-0.962,1.583L177.437,36.563z
	 M169.381,44.234l1.571-1.205l0.989-1.136c0.562-0.645,1.177-1.013,1.74-1.948c-0.54-0.077-1.097,0.168-1.416,0.548l-2.211,2.63
	C169.785,43.442,169.585,43.753,169.381,44.234z"/>
<path d="M196.476,46.612l-1.068,1.714c-0.482,0.774-1.437-1.293-2.892-1.17c-0.222-0.112-0.575-0.693-0.531-0.965
	c0.044-0.272,0.322-0.737,0.54-1.011l1.608-2.018l0.762-1.372c0.444-0.599,0.7-0.98,1.067-1.719l-1.349-0.54
	c-0.265-0.106-0.707-0.484-0.677-0.766c0.033-0.305,0.422-0.55,0.721-0.792l2.548-2.058l0.976-1.065l1.377-0.853l1.418-1.021
	c1.51-1.087,2.662-5.018,6.29-8.045l2.509-2.093c0.379-0.316,1.566-0.484,2.05-0.361l1.222,0.31l1.717,0.433
	c0.494,0.431,0.908,1.681,1.034,2.3c0.475,0.096,1.076,0.373,1.335,0.731l-1.631,1.325c-0.253,0.206-0.464,1.021-0.673,1.269
	l-2.854,3.386l-1.392,1.253c-0.927,0.835-1.786,2.193-2.987,2.677l-2.29,0.922l0.742,0.999l-0.624,2.061
	c-0.303,1-0.912,2.496-1.837,3.054c-1.118,0.673-2.629-0.063-3.686-0.597c-0.279,0.134-0.815,0.537-0.999,0.782L196.476,46.612z
	 M208.972,26.059l3.814-0.58c0.258,0.185,0.702,0.588,0.918,0.491l0.962-0.434l-0.673-1.544c-2.934-1.373-3.837-0.642-6.157,1.658
	l-1.676,1.662c0.581,0.13,1.053,0.083,1.119-0.11l0.323-0.935L208.972,26.059z M212.817,27.207c0.149-0.048-0.12-0.203-0.368-0.222
	l-3.315,0.674C209.838,28.705,210.625,27.342,212.817,27.207z M206.022,29.51l-0.688-1.279l-1.16,2.112L206.022,29.51z
	 M209.282,32.692c0.86-0.238,1.316-0.754,1.849-1.361c0.836-0.952,1.907-1.452,2.471-2.873l-2.452,0.619
	c0.391,0.491,0.489,1.079,0.217,1.175l-3.991,1.412l-2.443,1.374C206.349,33.258,208.181,32.997,209.282,32.692z M201.715,35.413
	l1.133-0.771l-1.413-0.863l-1.134,1.496L201.715,35.413z M207.46,34.659c-0.458-0.036-1.035-0.015-1.276,0.084l-1.732,0.71
	l-0.428,0.175c-0.095,0.039,0.008,0.414,0.11,0.414C205.045,36.05,206.599,35.44,207.46,34.659z M198.349,42.419
	c0.326-0.403,1.207-1.178,1.67-0.939c0.976,0.504,1.811,0.966,2.988,0.764l1.749-3.318c0.147-0.279-0.408-1.127-0.675-1.037
	l-0.927,0.314c-0.165,0.056-0.59,0.012-0.611-0.157l-0.113-0.924c-0.041-0.34-1.193-0.419-1.307-0.102l-0.393,1.088l-0.723-0.319
	c-0.177-0.078-0.5-0.492-0.419-0.667l0.361-0.782l-1.205,0.365c-0.33,0.1-0.912,0.298-1.177,0.489l-1.875,1.352l1.125,1.045
	c0.244,0.226,0.112,1.094-0.061,1.378l-1.634,2.686l-1.611,2.253l1.082,1.097l0.979-1.153L198.349,42.419z"/>
<path d="M370.831,73.268l-1.741,0.422l-2.251,0.014c-1.122,0.007-2.322,0.028-3.387,0.29c-0.871,0.214-1.597,0.317-2.428,0.329
	l-1.488,0.443l-1.537,0.156c-1.912-0.134-3.688-0.137-5.65,0.342l-1.177-1.183l1.519-1.599l-0.726,0.072
	c-0.66,0.066-1.552-2.334-1.529-3.383l0.146-6.455l0.071-2.469c0.009-0.3-0.221-0.842-0.475-0.938
	c-0.27-0.102-0.712-0.298-0.644-0.439c0.068-0.141,0.266-0.393,0.409-0.463c0.088-0.043,0.391-0.181,0.391-0.199
	c0.001-0.026-0.02-0.33-0.012-0.407l0.062-0.569c0.039-0.351,0.815,0.953,1.876,0.753l3.208-0.604l3.268-0.319
	c0.626-0.061,1.358,0.065,1.802,0.42l0.496,0.396c0.123,0.098-0.01,0.512-0.052,0.717l1.424,1.41l1.626,1.711l2.24-0.463l1.896-0.3
	l1.941-0.049c0.409-0.01,1.521,0.451,1.53,0.892l0.074,3.409c1.273-0.569,2.565-0.881,3.848-0.584l1.779,0.412l-1.082,1.835
	l-0.674,1.508l-0.824,1.18l-1.219,1.118l-0.783,1.184l0.059,1.777c-0.479,0.396-1.425,1.027-1.942,1.207
	c-0.177,0.062-0.635-0.422-0.552-0.583L370.831,73.268z M356.7,67.072c1.644,0.332,2.686,0.295,4.079,0.076l1.203-0.189l1.463-0.237
	l1.411-0.31l3.547-0.662c0.668-0.125,1.712-0.098,2.233-0.609l-0.353-2.909l-5.521,0.882c-0.542,0.087-1.667,0.224-1.845-0.4
	c-0.229-0.803-0.499-1.392-1.036-1.948l-2.427-2.514l-2.052,0.351l-1.549,0.187l-4.077,0.414l0.107,2.574l-0.015,1.763l-0.05,2.867
	l-0.121,2.496c-0.062,1.274,0.342,2.472,0.949,3.467l1.028-1.698c0.14-0.231,0.553-0.669,0.768-0.85l2.022-1.695L356.7,67.072z
	 M372.245,70.436l0.985-1.954l1.087-1.385l0.852-1.087c-1.338-0.215-2.947,0.205-3.614,1.074l-0.033,1.629l0.111,1.661
	c0.006,0.086,0.182,0.387,0.219,0.465C371.889,70.919,372.197,70.532,372.245,70.436z M364.354,72.67l4.079-0.209l1.572-0.012
	c2.553-0.019,0.018-2.177,0.779-5.171l-2.038,0.947c-0.188,0.087-0.755,0.265-0.816,0.088l-0.316-0.917l-2.718,0.626l-3.661,0.454
	l-1.189,0.183l-1.631-0.023c-0.596-0.008-0.845,0.324-1.268,0.797l-1.535,1.717l-1.747,2.356l2.95,0.143
	C359.299,73.77,361.176,72.833,364.354,72.67z"/>
<path d="M168.968,69.425c-1.816,0.156-3.436,0.528-4.411,1.996c-0.225,0.339-0.821,0.882-1.137,0.64
	c-1.392-1.069,0.187-3.118-1.503-4.594l-1.881-0.617c-1.067-0.35-2.196,2.558-3.263,1.798l-0.808-0.575
	c-0.211-0.15-0.061-0.85,0.111-1.008c2.209-0.988,2.489-3.116,1.422-5.411c-0.47-1.01-1.004-1.665-1.82-2.748
	c0.5-0.175,1.272,0.155,1.776,0.472c1.341-0.229,3.122-0.549,4.084-1.494l1.847-1.815l1.206-1.01
	c0.146-0.246,0.463-1.009,0.48-1.349l0.096-1.896c0.02-0.399,0.187-1.128,0.353-1.522c1.872-0.006,0.881,2.097,1.683,4.03
	l0.689,1.662l1.153,2.459l3.27-0.202l2.208-0.163c0.714-0.053,1.087-0.12,1.772-0.636l1.526,0.814
	c-0.517,1.292-1.949,1.487-2.608,2.975c-1.406,1.278-2.38,2.873-2.658,4.786l-0.27,0.622c-0.073,0.169,0.305,0.496,0.472,0.599
	l1.318,0.815c0.203,0.126,0.617,0.569,0.561,0.769L174.36,69.8l-1.859-0.848l-2.074,0.348L168.968,69.425z M158.288,61.084
	c0.731,1.864,0.931,2.867,1.047,4.522c2.921,0.163,3.867,1.461,4.831,3.865c0.509-0.618,0.798-0.975,1.112-1.051l1.433-0.345
	c1.92-0.462,3.025-0.14,4.239-0.806c-0.33-1.294-0.09-1.946,0.318-3.068l0.576-1.582l1.682-2.783
	c-1.855,0.405-3.224,0.811-4.728-0.021c-0.528-0.292-1.008-1.313-1.296-1.901l-1.224-2.499l-1.528,1.795l-1.09,1.127
	c0.45,0.112,1.539,0.292,2.107,0.279c1.714-0.037,2.179,0.934,2.536,2.339c0.226,0.891,1.203,2.057,1.212,2.945
	c0.011,1.151-0.743,1.779-1.737,1.896c-2.124,0.251-4.038,0.363-5.257-1.246c-1.138-1.501-0.345-2.689-0.074-3.611l0.589-2.01
	l-2.226,1.036l-1.356,0.594L158.288,61.084z M167.209,64.296c0.246-0.032,0.722-0.425,0.763-0.652
	c0.033-0.182-0.045-0.627-0.144-0.799l-0.898-1.565c-0.299-0.522-1.305-1.232-1.852-0.911c-1.294,0.761-1.962,1.99-2.169,3.443
	c0.685,0.44,1.622,0.828,2.325,0.737L167.209,64.296z"/>
<path d="M28.993,70.925l0.144,1.176c-1.173,0.236-1.327-1.057-2.189-1.13c-0.417-0.035-0.94-0.035-1.09-0.216
	c-0.181-0.216-0.429-0.855-0.434-1.011l1.362-0.29c0.295-0.063,0.498-0.809,0.509-1.117l0.138-3.687l0.109-0.945
	c-0.349-0.199-0.867-0.72-0.627-0.863l0.944-0.559l-0.704-3.464c0.277,0,1.214-0.017,1.442-0.248
	c0.271-0.274,0.467-1.178,0.614-1.541l0.914-2.253l0.855-2.029l0.937-1.906c0.421-0.856,0.665-1.461,1.028-2.495
	c1.238,0.126,2.286,1.686,3.182,3.091l1.309,2.054l3.913,4.987c0.723,0.922,1.266,1.793,1.85,2.869l-0.858,0.489l-1.496-1.17
	c-0.127,1.497-0.075,2.566,0.072,3.926c0.214,1.979,0.371,3.877,0.718,5.846l0.303,1.721c0.031,0.176-0.676,0.314-0.813,0.211
	l-1.225-0.918l0.34-0.407c0.073-0.088-0.046-0.336-0.154-0.57l-2.407,0.253l-2.015,0.181l-3.491,0.076L28.993,70.925z
	 M33.693,58.822l3.026-0.04l3.463,0.048c-2.089-2.514-3.958-4.97-5.749-7.527l-1.206,1.585c-1.385,1.82-1.987,3.723-2.762,5.977
	L33.693,58.822z M35.849,69.188l2.517-0.354c0.469-0.066,1.19-0.181,1.379-0.336l-0.355-4.199l-0.152-4.12
	c-2.149,0.148-4.076,0.062-6.126,0.073l-2.602,0.015c-0.355,0.002-1.209,0.549-1.33,0.648l-0.131,3.185l-0.185,2.957l-0.14,1.601
	c-0.018,0.21-0.031,0.798,0.163,0.799l0.631,0.002l2.886,0.032C33.602,69.506,34.623,69.361,35.849,69.188z"/>
<path d="M295.666,89.948l-0.424,2.337l0.013,1.559c-0.597,0.634-1.518-0.547-3.254-0.871c-1.894-0.354-3.746-0.414-5.672-0.39
	l-3.038,0.037l-1.75-0.003l0.093-1.116c-0.275-0.772-0.466-1.599-0.477-2.438l-0.079-6.045c-0.023-1.773,0.21-3.212,1.1-4.736
	c0.738,0.382,1.096,0.45,1.706,0.438l3.136-0.063l4.403,0.306l4.187,0.131c0.257,0.008,0.756,0.402,0.726,0.624l-0.483,3.518
	c-0.084,0.609,1.375,1.076,0.924,1.373l-0.847,0.557l-0.094,2.697c-0.005,0.159-0.035,0.497,0.065,0.536l0.529,0.208
	c0.176,0.069,0.5,0.257,0.64,0.378c0.175,0.152-0.024,0.855-0.261,0.874L295.666,89.948z M287.286,83.107l-0.176-2.196
	c-0.024-0.297,0.282-0.92,0.434-1.266c-1.616-0.16-3.178-0.094-4.789,0.331l0.019,1.5c-0.352,0.158-0.708,0.694-0.711,1.129
	l-0.015,2.159C285.581,83.307,287.434,84.955,287.286,83.107z M294.148,83.915c0.286,0.018,0.74-0.599,0.764-0.821l0.317-2.879
	l-2.43-0.153l-2.922-0.067c-0.544-0.013-1.043-0.152-1.786-0.449l0.278,4.083l2.086,0.337l-0.095-2.614
	c0.046-0.158,0.098-0.452,0.201-0.462l0.774-0.077l0.245,2.943L294.148,83.915z M290.592,88.288l-0.068-3.217l-2.047,0.033
	l-0.459,2.862C288.832,88.322,289.797,88.512,290.592,88.288z M294.938,88.554l-0.245-3.424l-3.179-0.208l0.262,3.333
	L294.938,88.554z M285.151,88.048l1.633,0.037l0.539-2.812c-1.243-0.197-1.831,0.01-2.862,0.151l-2.253,0.308l-0.029,2.017
	L285.151,88.048z M286.363,89.631c-0.006-0.222-0.89-0.244-1.126-0.279l-3.013-0.449l0.431,2.103
	c-0.261,0.404-0.079,0.68,0.348,0.239l3.407,0.163L286.363,89.631z M290.645,91.601c0.224-0.331,0.185-1.634-0.217-1.865
	c-0.677-0.068-1.87-0.114-2.391-0.02c-0.245,0.044-0.572,0.657-0.602,0.903c-0.031,0.246,0.297,0.781,0.551,0.799L290.645,91.601z
	 M294.237,92.451l0.384-2.578l-2.737,0.012l0.206,1.81L294.237,92.451z"/>
<path d="M114.228,40.867l-1.666,1.403l-1.493,1.158c-0.15,0.116-0.292,0.471-0.375,0.825c-0.392,0.255-1.264,0.321-1.987,0.146
	c-0.062-0.511-0.092-1.304-0.057-1.649c0.596-0.497,0.936-0.962,1.205-1.558l0.979-2.173l0.745-1.279l-1.505-0.651l-0.371,0.296
	c-0.097,0.077-0.437-0.019-0.563-0.061l-1.454-0.482c-0.387-0.128-1.088,0.023-1.51,0.192c-0.508-0.325-0.751-1.221-0.682-1.967
	c1.647,0.185,3.151-0.235,4.781-0.823c0.453-0.071,0.989-0.155,1.517-0.423l1.256,0.058c1.062-0.568,1.796-1.568,2.207-2.678
	l1.625-4.395l1.143,0.893c0.468,0.366,0.507,1.529,0.678,2.138l0.59,2.099l1.849-0.603l1.499-0.316l1.691-0.426l0.833,1.181
	c0.11,0.156-0.278,0.669-0.431,0.826l-1.988,2.044c-0.721,0.742-1.799,1.059-2.438,2.085l0.774,1.955l0.737,1.775
	c0.248,0.597,0.328,1.519,0.37,2.352l-1.16,0.015l-3.046-2.411c-0.805-0.637-1.592-1.161-2.638-0.38L114.228,40.867z M117.937,32.22
	l-0.493-1.916l-0.863,2.047L117.937,32.22z M119.927,34.745l2.035-1.747l-1.455,0.095c-0.268,0.017-0.967,0.372-0.889,0.628
	L119.927,34.745z M116.324,37.089l1.154-1.087c0.22-0.207,0.51-0.27,1.186-0.369l-0.263-1.831l-3.096,0.837l-1.332,2.386l1.54,0.8
	L116.324,37.089z M112.334,36.41l0.566-1.014l-2.197,0.32l0.008,0.631L112.334,36.41z M120.321,40.441l-1.105-3.076l-1.863,1.368
	L120.321,40.441z"/>
<path d="M362.256,85.235l-1.006,1.71l-3.809,3.131c-0.827,0.68-1.785,1.462-2.834,1.709l-1.684,0.397
	c-1.278,0.301-3.733-0.5-4.784-1.357l-2.639-2.151l-1.198-1.044l-0.583-2.38l1.462-0.714l1.458-0.902l1.115-1.068l1.662-1.723
	l1.415-1.416l1.436-1.339c0.202,0.228,0.832,0.85,0.949,1.193l0.8,2.353l0.514,1.539c0.528-1.612,1.037-2.26,2.299-3.092
	c0.399-0.263,1.599,0.002,1.928,0.363c0.509,0.558,1.278,1.441,1.833,1.747l1.396,0.769l0.676,0.024
	c0.166,0.006,0.143-0.388,0.139-0.597c0.005-0.126,0.116-0.63,0.225-0.556l0.515,0.346c0.639,0.429,0.859,1.19,0.594,1.916
	l-0.563,1.542c-0.051,0.139-0.528,0.54-0.626,0.422L362.256,85.235z M349.27,85.184l3.059-0.496l1.471-0.239l-1.448-4.257
	l-1.495,1.434l-1.734,1.979l-1.503,1.32C347.997,85.107,348.76,85.267,349.27,85.184z M359.115,83.893
	c0.262-0.041,0.891-0.361,0.739-0.515l-0.79-0.799l-0.954-1.182c-1.998,0.57-2.317,2.939-2.083,2.922l0.616-0.044L359.115,83.893z
	 M347.931,88.852c0.917,0.759,2.489,1.448,3.648,1.599c1.893,0.248,3.353-0.974,4.68-2.007l1.897-1.477l1.245-1.022l-4.926,0.535
	l-3.909,0.218l-4.405,0.688L347.931,88.852z"/>
<path d="M398.374,67.24c-0.242,0.452-0.287,1.43-0.371,2.052l-0.259,1.914c-0.034,0.248-0.283,0.746-0.512,0.797
	c-0.852,0.19-0.945-0.787-2.666-0.558l-4.881,0.65c-0.5,0.067-1.098,0.387-1.427,0.707c-1.032-0.112-1.294-1.116-1.226-2.076
	l0.295-4.169l0.287-1.499l-0.033-1.456l-0.37-3.661c-0.175-1.73-0.599-3.468,0.313-5.138c0.231,0.049,0.683,0.256,0.672,0.457
	l-0.07,1.285c1.299,0.02,2.654-0.082,4.048-0.315c0.589-0.099,1.139-0.026,1.655-0.011l2.119,0.061
	c-0.042,0.772,0.071,1.243,0.375,1.664l1.417,1.963c0.297,0.412,0.62,0.973,0.938,1.192l0.665,0.457l-0.638,0.34
	c-0.162,0.086,0.097,0.601,0.074,0.816l-0.368,3.498l0.703-0.351L398.374,67.24z M394.214,66.104
	c0.477,0.086,0.978,0.183,1.178,0.378c0.171,0.167,0.329,0.797,0.3,0.901l-2.202,0.226c-0.388,0.168-0.382,0.273,0.035,0.279
	c1.109,0.334,2.154,0.466,3.107,0.203l0.317-3.003c-1.113,0.599-2.051-0.127-3.658,0.301c-0.801,0.214-1.483,0.389-2.259,0.239
	c-0.463-0.089-0.599-1.389-0.274-1.607l1.463-0.231l2.613-0.412c-1.141-1.357-0.752-3.668-0.407-5.977l-3.933,0.23l-1.956,0.114
	c-0.149,0.009-0.543,0.067-0.555,0.195c-0.097,1.006,0.968,3.473,0.699,7.846l-0.117,1.914l-0.183,2.957l1.615-0.186l1.802-0.208
	c0.081-0.009,0.454-0.322,0.373-0.332c-0.081-0.01-0.469-0.094-0.549-0.081l-1.689,0.281c-0.336,0.056-0.99-0.518-0.941-0.863
	c0.04-0.282,0.523-0.622,0.817-0.683l2.044-0.425l-0.691-0.978l1.778-1.308L394.214,66.104z M396.8,60.317l-1.221-1.46l-0.067,2.469
	L396.8,60.317z M396.918,64.165l0.486-2.005l-1.752,1.04L396.918,64.165z"/>
<path d="M272.056,66.653l1.52,0.008c0.294-1.277,0.03-2.59-0.958-3.361c-0.578-0.451-0.496-1.461,0.122-2.129
	c1.097,0.797,1.636,1.741,2.295,3.144c0.307-0.059,0.911-0.558,1.227-0.981l1.28-0.421c0.676-0.252,1.206-0.171,1.909,0.06
	c1.47,0.484,2.377,1.14,2.882,2.963l0.517-1.346c-2.133-0.815-1.056-2.849-1.86-2.874l-2.571-0.082
	c-1.029-0.033-2.029-0.202-2.785-0.807c-0.167-0.459-0.111-1.279,0.042-2.033c1.144,0.354,1.051,1.309,2.411,1.34l1.965,0.046
	c0.391,0.009,1.385,0.044,1.589-0.284l1.205-1.942c0.194-0.312,1.233,0.502,1.184,0.842l-0.827,1.972
	c-0.175,0.416-0.228,1.283-0.285,1.887c1.188,0.792,2.62,0.733,2.28,2.106c-0.467,0.325-1.166,0.807-1.292,1.233l-0.668,2.255
	l1.154,0.431l1.164,1.777c-1.47,1.273-2.087-0.588-3.403,0.455l-1.636,1.297c-1.351,1.071-1.495,1.91-2.382,2.154
	c-0.306,0.084-0.577-0.827-0.568-1.192c-1.163-1.524-3.755-2.18-4.103-1.276c-0.291,0.756-1.573,1.927-2.436,1.205
	c-0.822-1.194,0.335-3.043,1.808-3.202c-0.016-0.882-0.301-1.43-1.005-2.006L272.056,66.653z M279.242,68.531l1.376-0.82
	c0.188-0.562,0.486-1.591,0.372-2.102c-0.208-0.923-1.477-1.214-2.371-1.286l-0.165,1.073c-0.741,1.02-1.312,1.978-1.725,3.277
	C277.674,68.734,278.786,68.803,279.242,68.531z M276.37,70.319c-0.903-0.996-1.121-2.241-0.632-3.392l0.492-1.159
	c-0.53-0.19-0.902-0.342-0.987-0.174c-0.435,0.861-0.139,1.653-0.658,2.04c-0.228,0.17-0.861,0.477-0.829,0.716l0.203,1.484
	L276.37,70.319z M278.477,71.771l2.24-1.889l-1.616,0.252l-2.835,0.212L278.477,71.771z"/>
<path d="M425.482,90.716l-1.579,0.386c-0.361-1.312-0.505-2.862-0.392-4.239c0.07-0.852-1.03-0.761-1.038-2.235l1.454-0.395
	l0.096-1.396l0.243-3.578c0.796-0.579,2.047-0.725,3.162-0.745l3.775-0.067c0.314-0.006,0.914,0.116,1.198,0.044l1.105-0.279
	l1.371,0.205l2.037,0.192c0.342,0.945,0.697,1.798,0.778,2.758l0.243,2.874l0.314,4.816c0.047,0.723,0.045,1.45-0.396,2.049
	l-2.78-0.901l-3.758-0.39l-2.444-0.027C427.662,89.775,426.526,90.044,425.482,90.716z M429.079,83.771l-0.562-3.549l-2.31-0.099
	c-0.235-0.01-0.748,0.015-0.947,0.094c-0.199,0.079-0.183,0.6-0.201,0.867l-0.152,2.304c-0.012,0.179,0,0.663,0.171,0.714
	s0.568,0.053,0.747,0.029l1.577-0.211L429.079,83.771z M430.321,85.429l0.351,2.587l1.311,0.17c1.886,0.018,3.497,0.192,5.316,0.634
	l-0.232-4.12l-0.659-4.658l-6.793,0.005l0.573,3.424l1.93-0.104l1.374-0.251l1.908-0.301c0.312,0.347,0.394,1.376,0.169,1.745
	l-1.923,0.325L430.321,85.429z M424.95,89.362c0.928-0.932,1.579-1.407,2.548-1.401l2.287,0.014l-0.492-2.368l-2.567,0.303
	l-2.132-0.018l-0.259,1.917C424.257,88.383,424.557,89.193,424.95,89.362z"/>
<path d="M304.416,67.166c-0.229,0.271-0.72,1.019-0.856,1.435l-0.551,1.686l-0.584,1.47l-1.358,2.533l-0.673,1.341
	c-0.244,0.067-1.02,0.059-1.37,0.003l-3.987-0.642c-0.648-0.104-1.328-1.049-0.854-1.711c0.337-0.472,1.655-0.704,2.095-1.099
	l2.172-1.949l2.297-2.775l1.543-1.929c-1.087-0.556-2.011-1.928-2.264-2.786c-0.103-0.351,0.314-1.176,0.628-1.381l2.892-1.885
	c0.505-0.329,1.295-0.322,1.901-0.069c0.542,0.226,0.605,1.075,0.31,1.471l-0.765,1.028l1.24,1.366l1.447-2.522
	c0.141-0.246,0.579-0.695,0.801-0.806c0.259-0.129,0.756,0.073,1.239,0.274l-0.856,0.41c0.04,0.065,0.444,0.341,0.596,0.268
	l0.674-0.325l0.413,0.482c0.095,0.111,0.451,0.049,0.668,0.04l1.094,1.341c0.334,0.409-0.399,1.505-0.655,1.984
	c-1.062,1.992-2.583,4.519-4.471,4.291C305.998,68.566,305.452,68.269,304.416,67.166z M303.694,62.733l0.94,0.464l-1.103-2.031
	l-2.114,1.786c-0.07,0.993,1.773,1.026,1.898,0.717L303.694,62.733z M305.351,65.619l-0.116,0.753
	c-0.018,0.116,0.364,0.072,0.496,0.082l1.379,0.114c-0.08,0.436-0.145,0.643-0.02,0.654l0.681,0.06l0.328-0.867
	c2.028-0.091,1.641-1.966,3.243-3.624c-0.268-0.237-1.272-0.775-1.748-0.67c-0.554,0.122-1.2,1.031-1.387,1.511l-0.707,1.817
	l-0.274,0.749l-1.124-0.408c-0.249-1.035-0.554-1.635-1.259-2.311C304.328,64.494,305.504,64.618,305.351,65.619z M299.206,73.854
	l1.551-1.883c0.594-0.721,1.583-2.707,1.743-3.942l-1.14,1.297l-1.786,1.99l-2.601,2.431L299.206,73.854z"/>
<path d="M439.683,42.648l2.448-0.474l0.135-1.503l1.573-3.907c0.154-0.382,0.119-1.32,0.122-1.63
	c-0.296-0.431-0.498-1.037-0.283-1.447c1.447,0.447,1.49,2.707,0.744,4.376l-0.924,2.069c-0.302,0.677-0.311,1.836-0.338,2.764
	c-0.246,0.178-0.94,0.49-1.284,0.54l-2.683,0.385l-7.554-0.061l-6.729-0.947c-0.264-0.037-0.409-0.621-0.437-0.971
	c-0.053-0.653-0.658-1.444-0.891-2.151c-0.236-0.717-0.403-1.908-0.289-2.662l0.381-2.522c0.218-1.444-0.506-2.173-0.109-2.755
	c0.462-0.676,1.651,0.012,2.47-0.855c0.11,0.074,0.873,0.428,1.165,0.396l2.158-0.233l4.061,0.004l2.21,0.025l3.572,0.283
	l2.866-0.212c0.495-0.037,1.763-0.134,1.598,0.813c-0.501,2.886-2.926,5.767-2.785,8.032l0.104,1.67l-4.187,0.003l-4.559-0.154
	c-1.782-0.06-3.47,0.01-5.328,0.358l3.638,0.468l2.42,0.245l1.822,0.083l2.028,0.019L439.683,42.648z M435.1,40.552l1.742,0.196
	c0.797,0.089,2.102-0.199,2.699-0.536c0.087-0.902,0.131-1.623,0.389-2.233l1.741-4.119l0.573-1.773l-6.934-0.146l-7.386-0.051
	l-3.14,0.484l-0.169,2.317l-0.102,2.789c-0.028,0.772,0.057,2.173,0.672,2.672c0.524,0.425,1.763,0.575,2.359,0.518l2.197-0.209
	l3.238-0.007L435.1,40.552z"/>
<path d="M408.241,90.651c-1.25,1.19-1.825,1.742-3.147,2.604c-1.169-1.041-1.022-2.295-2.161-3.425
	c-1.512-1.501-2.089-3.394-1.417-5.436l0.469-2.307c0.333-1.638,3.301-1.876,5.129-0.384c0.823-0.075,0.066-0.851,0.863-2.507
	c0.311-0.647,0.601-1.072,1.116-1.514c1.736-1.493,3.816-2.998,4.772-1.537c0.631,0.964-0.27,3.407-1.535,4.854
	c1.59,0.486,2.269,3.144,1.839,4.541c-0.071,0.231-0.93,0.166-1.179,0.168c-0.787,0.007-1.823,1.072-2,1.905
	c-0.151,0.711,1.491,0.23,2.478,1.957l-1.23,1.831c-0.484,0.721-1.231,1.372-2.154,1.661c-0.354,0.111-0.987-0.512-1.131-0.829
	L408.241,90.651z M408.714,80.86c2.392-0.094,3.315-1.407,4.498-3.667l-1.647,0.409c-0.119,0.051-0.493,0.401-0.42,0.494
	l0.386,0.491l-0.689,1.005c-0.281-0.176-0.704-0.405-0.855-0.358C409.509,79.387,408.733,80.239,408.714,80.86z M411.494,84.152
	l1.691-0.174c0.068-0.27-0.216-1.138-0.518-1.291c-1.114-0.562-2.357-0.395-3.53-0.106c-0.326,0.08-1,0.288-1.055,0.525
	c0.108,0.668-0.08,1.515-0.661,2.176l0.646,0.601c0.385,0.359-0.645,1.504-1.066,1.018c-0.779-0.897-0.595-2.584-0.433-3.718
	c0.034-0.239-0.304-0.649-0.555-0.816c-0.783-0.522-2.259-0.792-2.803,0.259c-0.511,0.989-0.746,2.334-0.843,3.538
	c-0.061,0.755,0.463,1.555,0.862,2.065l1.983,2.536c1.619-0.928,2.264-2.712,2.832-2.033l1.866,2.235l1.152-1.335
	c-0.672-0.588-1.305-1.047-1.508-1.616c-0.338-0.946,0.315-2.107,0.877-2.716L411.494,84.152z"/>
<path d="M79.655,88.784c0.183,0.304,0.358,1.049,0.377,1.374c-0.076,0.035-0.487,0.228-0.474,0.227
	c0.014-0.001-0.143-0.169-0.2-0.238l-1.405-1.688l-2.464,2.431l-3.083,3.014c-0.928,0.907-3.198-1.152-4.454-2.919l-2.128-2.992
	c-0.742-1.044-1.212-2.182-1.63-3.431c-0.309-0.402-0.746-1.35-0.681-1.862l0.416-3.252l-1.743-0.083
	c-0.751-1.01,0.246-1.929-0.31-4.335l-0.281-1.217c2.878,1.593,1.531,3.382,2.223,4.108c0.144,0.151,0.831,0.175,0.936-0.005
	c0.252-0.43,0.54-1.533,0.57-1.947l1.726,0.593l2.846,0.998l1.71,0.65l1.387,0.733c0.205,0.108,0.379,0.662,0.518,1.057l0.457-0.544
	l1.697,3.185c0.597,1.12,1.076,2.521,1.977,3.375c0.406,0.385,0.762,0.696,1.003,1.094L79.655,88.784z M65.319,84.497
	c0.747,2.222,1.807,3.93,3.301,5.511l2.396,2.536c1.421-0.984,2.322-1.851,3.444-2.97l2.443-2.436
	c-0.996-1.538-1.733-2.979-2.49-4.597l-0.94-2.01c-0.543-0.107-1.001-0.234-1.416-0.411l-2.129-0.908l-3.579-1.252
	c-0.113-0.04-0.647,0.37-0.553,0.446l0.444,0.358l2.056,1.674l1.186,1.345c0.335,0.38,0.757,1.149,0.992,1.612
	c-0.356,0.788-0.877,1.324-1.567,1.486c-0.558,0.131-1.427-0.26-1.837-0.77c-0.23-1.639,0.813-1.897,0.789-2.594
	c-0.007-0.212-0.316-0.705-0.501-0.83l-1.7-1.149C63.864,82.582,64.859,83.131,65.319,84.497z"/>
<path d="M196.966,72.343l0.548-3.361l-2.239-1.044c-0.85-0.396-1.682-0.705-2.603-0.988l-2.335-0.718l-1.542-0.659
	c-0.09-0.4-0.317-1.312-0.207-1.744l0.825-3.247c0.282-0.618,1.243,0.091,1.656,0.19c1.048,0.252,2.513,0.232,3.814,0.133
	l-0.579-3.164l-0.422-2.322c-0.084-0.46,0.139-1.408,0.25-2c1.494,0.568,0.787,2.363,1.323,4.718l0.676,2.97l3.174-0.005
	l-0.621-3.512c-0.27-1.525,0.042-3.07,0.545-4.455c0.421-0.005,1.121,0.558,1.051,0.874l-0.459,2.084
	c-0.186,0.845,0.228,3.548,0.8,4.78c0.976,0.183,1.553,0.471,1.982,1.257c1.007,1.847,0.269,3.548-0.709,5.412
	c-0.742,1.414-1.33,1.863-3.351,1.742l1.256,2.023c0.337-0.05,1.038-0.093,1.326,0.053l0.553,0.281
	c0.148,0.075-0.191,0.6-0.285,0.666l-0.615-0.521c-0.595,0.71-1.52,1.086-2.436,0.733l-0.273,3.74l-0.582,0.001
	C197,76.261,196.677,74.115,196.966,72.343z M200.815,65.525l0.934-2.126c0.083-0.189-0.331-0.796-0.544-0.778l-0.801,0.07
	l-4.245-0.193l-2.172-0.048l-2.292-0.015l-1.51-0.214l-0.219,1.513c-0.031,0.214-0.203,0.766-0.026,0.842l0.606,0.26l3.138,1.02
	l4.046,1.425c0.441,0.155,1.487,0.35,1.854,0.107C200.133,67.025,200.517,66.203,200.815,65.525z"/>
<path d="M329.979,84.3l-0.153,1.805c-0.044,0.524-0.078,1.24-0.004,1.73l0.373,2.486l-0.666,1.377l-2.37,0.246
	c-0.697,0.072-3.11-0.655-3.621-1.106c-0.264-0.234-0.172-1.225,0.078-1.488c0.651-0.683,1.64-0.994,2.609-1.237
	c0.783-0.196,1.162-0.042,2.288,0.274l-0.221-2.681c0.145-0.309,0.544-1.321,0.205-1.531l-1.23-0.762l-0.001-1.216l1.887,0.63
	c0.187-0.603,0.401-1.268,0.291-1.598l-0.314-0.947c-0.081-0.245,0.361-0.651,0.593-0.833l0.639-0.501
	c0.134-0.105,0.451,0.396,0.577,0.515c0.78,0.735,2.09-0.033,2.909-0.082l3.39-0.205l0.868,1.133
	c-0.607,0.467-0.862,1.306-0.562,1.806l0.919,1.53c-0.67,0.23-1.468,0.655-1.468,1.076l0.004,4.629l-0.948,1.546
	c-1.011,0.356-2.319,0.497-3.609,0.373c-0.415-0.04-0.714-1.118-0.609-1.526c0.459-1.793,2.063-2.29,3.877-1.908l-0.042-3.586
	l-3.768,0.318C331.266,84.62,330.632,84.508,329.979,84.3z M330.399,82.887l1.431,0.051l4.026-0.068l0.169-1.836l-1.808,0.044
	c-0.334,0.778-0.622,1.055-1.291,1.345l0.152-1.198l-1.151,0.086l-1.167,0.087L330.399,82.887z"/>
<path d="M386.295,84.26l-4.225,3.848c-0.81,0.738,1.123,1.413,1.034,3.178c-0.019,0.378-0.773,0.678-1.11,0.593
	c-1.436-0.363-0.835-1.947-2.211-2.713l-2.36-1.314l-1.677-0.903l-3.578-2.403c-1.15-0.773-1.801-2.45-1.133-3.693l0.775-1.443
	c0.35-0.483,1.414-1.223,1.986-1.392l1.608-0.474c0.998-0.294,1.988,0.008,2.946,0.319c1.316,0.428,2.303,0.965,3.153,2.341
	l1.945-1.505c0.289-0.224,1.026-0.593,1.365-0.704c0.448-0.146,1.537-0.231,2.031-0.103l2.123,0.551
	c0.923,0.239,1.302,2.417,0.571,3.113l-1.638,1.559L386.295,84.26z M387.559,79.695c-1.024-0.34-2.085-0.299-2.966,0.26
	l-1.695,1.075c-0.325,0.206-0.655,0.898-0.802,1.35l-1.105,0.318c0.141,0.576,0.265,0.968,0.125,1.193
	c-0.117,0.187-0.612,0.39-0.832,0.371c-0.22-0.018-0.64-0.414-0.652-0.634l-0.069-1.239c0.197-0.415,0.683-1.289,0.557-1.701
	c-0.112-0.366-1.07-0.656-1.426-0.799c-3.071-1.233-5.796-0.829-7.162,2.251l4.027,2.921l2.209,1.139l2.806,1.642
	c0.795-1.179,1.701-1.954,2.725-2.866l1.53-1.362c0.556-0.495,1.006-0.851,1.68-1.221c0.65-0.357,1.669-1.435,2.1-1.986
	c0.112-0.144-0.186-0.737-0.368-0.732L387.559,79.695z"/>
<path d="M384.42,35.105l-1.417,1.543l0.952,1.326c0.283,0.394,0.516,1.379,0.517,1.815c0,0.116-0.527,0.312-0.58,0.21l-0.242-0.461
	l-1.124-2.147l-2.016,1.685l-2.751,1.463c-0.933,0.496-1.821,1.25-2.989,0.759l-1.626-1.457c-0.316-0.284-0.725-1.185-0.711-1.643
	l0.068-2.198l1.998-3.301c0.535-0.28,1.525-0.5,2.207-0.655c0.66-0.15,0.949,0.02,1.444,0.398l1.368,1.046l2.725,1.748
	c0.543-0.555,1.315-1.236,1.933-1.63l1.984-1.264c0.406-0.259,1.079-0.446,1.52-0.614c1.123-0.429,1.818-0.524,2.889-0.024
	c2.051,0.957,2.557,2.666,2.641,4.936c0.034,0.911,0.003,1.39-0.322,2.374l1.243,1.062c0.189,0.264,0.372,1.019,0.417,1.529
	c-0.204,0.203-0.787-0.176-1.059-0.403l-1.811-1.514c-1.479,0.442-2.939,0.805-4.369,0.383c-1.028-0.303-1.4-1.664-1.347-2.586
	l0.12-2.082c1.334-0.228,3.13,0.444,4.137,1.295l1.449,1.224c0.499-0.584,0.702-1.343,0.589-2.205
	c-0.176-1.345-1.129-3.061-2.754-2.945C387.681,32.903,385.924,33.926,384.42,35.105z M380.371,37.304
	c0.352-0.196,0.921-0.562,1.072-0.836c0.115-0.209-0.466-0.727-0.676-0.87l-2.853-1.937c-0.78-0.53-2.103-0.427-2.807,0.082
	l-0.647,1.154c-0.623,1.112-1.09,2.165-1.224,3.5l1.295,1.44c0.32,0.356,1.451-0.084,1.868-0.317L380.371,37.304z M390.163,38.348
	c-1.682-1.723-3.6-1.649-3.46-1.106l0.373,1.437C388.228,38.843,389.008,38.864,390.163,38.348z"/>
<path d="M323.568,62.353c0.255,0.754,0.483,2.127,0.081,2.727l-0.925,1.384c-0.177,0.265-0.951,0.432-1.445,0.572
	c1.638,0.987,1.873,1.581,1.662,3.52c-0.095,0.868-1.476,1.087-1.025,1.925c0.069,0.128,0.459,0.435,0.534,0.311l0.47-0.783
	c0.154-0.256,0.549-0.732,0.841-1.037l2.743,0.981c0.397,0.142,0.675,1.025,0.774,1.661c0.056,0.062,0.754,0.044,0.987-0.042
	c0.696-0.256,0.798-2.818,2.469-2.696c0.614,0.045,1.282,0.365,1.887,0.637l0.559-1.645c-2.027-0.551-1.287-1.879-2.161-2.798
	l-0.244,1.75l-0.615,0.976c-0.872,1.383-4.496,1.011-5.305-1.142c-0.405-1.077-0.352-2.324,0.58-3.177
	c0.287-0.263,1.112-0.492,1.515-0.619c1.077-0.339,2.107-0.323,2.831,0.669l0.978,1.342c0.075-1.308,0.465-1.968,1.873-2.301
	l-0.594-1.112c-1.784,1.428-4.403,0.032-4.499-0.388c-0.176-0.766,0.253-1.494-0.035-1.45l-0.659,0.101l-2.989,0.087l0.207-1.212
	l2.359-0.013c0.555-0.003,1.495-0.963,2.226-0.344c0.424,0.359,0.318,1.528,0.076,2.241c1.243,0.723,2.638,0.161,3.294-1.323
	c0.841,0.18,0.544,1.406,1.926,2.759c0.23,0.225,0.305,0.956,0.261,1.298l-2.068,1.2l0.552,1.773l1.653-0.532
	c0.774,0.529,0.662,1.481,0.21,2.189l-0.464,1.513l-0.712,1.905l-2.318-0.672c-0.785-0.228-1.372,0.868-1.118,1.575
	c0.067,0.188,0.079,0.81-0.073,0.929c-0.444,0.347-0.803-0.006-1.932,0.319c-0.799,0.229-1.527,0.326-2.37,0.38l0.051-1.44
	l0.337-0.981l-1.782-0.783l-1.336,1.435c-0.242,0.26-1.057,0.479-1.291,0.263c-0.242-1.026-0.946-2.022-1.871-2.545
	c-0.461-1.666,2.11-0.646,2.418-1.969c0.105-0.453-0.514-1.506-0.93-1.641l-1.74-0.121l0.313-2.387
	c0.018-0.14,0.253-0.622,0.373-0.57l0.557,0.241l0.811,0.352c0.234,0.101,0.757-0.339,0.874-0.584
	c0.784-1.646,0.041-2.249,0.492-2.971C322.943,61.921,323.501,62.155,323.568,62.353z M326.487,68.783
	c1.202,0.937,3.271-0.011,3.383-1c0.039-0.345-0.277-1.019-0.537-1.378c-0.203-0.28-1.01-0.549-1.316-0.425
	c-0.306,0.124-0.741,0.533-1.016,0.825l-1.291,1.373L326.487,68.783z"/>
<path d="M229.251,71.243l0.604,2.661c0.043,0.189,0.31,0.768,0.16,0.891l-0.655,0.54c-0.721-1.015-1.056-1.893-1.209-3.035
	c-0.163-1.216-1.413-0.677-3.142-1.854c-1.333-0.908-1.872-2.425-1.996-3.954l-0.091-1.116l0.273-1.894
	c-0.73-0.605-0.91-1.2-0.729-2.036l1.442,0.241l0.975-1.542l1.096,1.203c0.196,0.216,0.545,0.513,0.753,0.643l0.111-5.776
	c0.93,0.118,1.089,0.832,1.077,1.604l-0.061,3.882l2.342-0.235c-0.211-2.033-0.304-3.731,0.88-5.437l0.896,1.113
	c-0.125,0.259-0.341,0.717-0.361,0.933l-0.264,2.828l1.486-0.574c2.202,0.901,3.591,4.768,2.815,6.357l-0.741,1.516
	c-0.356,0.728-1.642,1.169-2.404,1.524L229.251,71.243z M224.753,63.623l-0.401,1.443c-0.522,1.878-0.07,4.048,1.108,4.224
	c3.232,0.483,5.131-0.462,7.876-2.258c1.072-0.701,1.68-2.16,1.021-3.325l-0.866-1.531l-1.355,0.83
	c-0.83,0.509-0.161,1.55-0.634,1.34c-0.766-0.341-0.776-1.132-1.549-0.935l-1.857,0.474c-0.261-0.073-0.981-0.298-1.274-0.294
	L224.753,63.623z"/>
<path d="M151.288,37.04l0.906,1.584l1.12,1.576c-0.58,1.024-1.507,0.772-1.841,1.577c-0.372,0.896-1.043,1.42-1.957,1.642
	c-3.308,0.801-6.651,1.143-9.94,0.054c-0.777-0.257-1.756-1.116-2.221-1.715c-1.292-1.663-2.023-3.428-1.897-5.522l0.081-1.35
	l1-1.822l0.752-1.372l1.821-2.521l0.475-0.622c1.045-0.199,1.905-0.577,2.845-1.044l1.992-0.989
	c0.375-0.186,1.182,0.842,0.949,1.217l-0.77,1.241l0.206-1.503l-2.183,0.873l1.068,0.844l-1.2,2.469
	c-1.126,2.316-2.12,5.42-0.391,6.643l1.906,1.348c0.695,0.491,1.546,0.904,2.416,0.896l1.431-0.013
	c1.186-0.011,2.957-0.577,3.095-1.425L151.288,37.04z M146.575,42.333c-1.706-0.841-2.67-1.265-3.872-2.172
	c-0.894-0.622-2.161-1.446-2.345-2.59l-0.33-2.062c-0.072-0.449,0.277-1.449,0.454-1.87l1.147-2.722l0.996-2.418l-2.641,1.551
	c-1.438,1.22-2.325,2.918-3.059,4.687c-1.107,2.664,0.138,7.178,3.489,7.515l2.334,0.235l1.25,0.126L146.575,42.333z"/>
<path d="M76.362,43.622l1.579-1.254l2.552-3.328l1.365-1.192l1.713-0.846l1.01-0.656c1.149-0.62,2.162-1.287,2.904-2.369
	l0.659,0.041l0.01-0.755c0.003-0.219-0.518-0.362-0.767-0.327l-2.904,0.409l-1.641,0.231l-0.46-1.482l0.909-0.02l1.849-0.041
	c-0.412-0.615-0.729-1.403-0.563-1.8l4.261-0.624l0.41-1.669c0.092-0.374,1.337-0.25,1.331,0.132
	c-0.007,0.481,0.002,1.189,0.047,1.38c1.416,0.157,2.21,0.348,3.428,0.87c-0.225,0.509-0.445,0.938-0.728,1.282l-1,1.213l1.432,1.39
	c0.221,0.215,0.513,0.794,0.398,1.054c-0.115,0.26-0.684,0.722-0.914,0.739l-1.953-1.811l-1.04,2.596
	c-0.205,0.512-0.572,1.075-0.901,1.375l-0.683-1.571l-0.123-1.692l-1.568,1.397l-3.088,1.983c-1.513,0.972-2.588,2.131-3.684,3.568
	c-0.991,1.299-2.394,2.414-3.66,3.497c-0.213,0.182-0.932,0.283-1.105,0.092c-0.173-0.192-0.426-0.661-0.48-0.865L76.362,43.622z"/>
<path d="M257.838,70.416l-1.904-1.853l-2.16,0.556l-2.517,0.344c-0.858,0.117-1.965,0.024-2.779-0.269l-1.425-0.514
	c-0.508-0.183-1.223-2.095-1.175-2.885l0.086-1.427c0.055-0.918,0.666-1.955,1.138-2.776l1.508-2.623
	c0.159-0.277,0.638-0.719,0.886-0.931c1.208-1.034,2.475-1.329,4.036-0.96c1.686,0.399,3.17,1.43,2.889,2.95l1.031,2.462
	c0.445,1.062,0.502,2.542,0.121,3.676l-0.592,1.762l2.584,2.307l1.123,0.814l2.686,1.9c0.129,0.091,0.152,0.709,0.151,0.865
	c-0.001,0.158-0.672,0.224-0.833,0.117l-3.689-2.445L257.838,70.416z M255.632,61.167l-1.673-0.71
	c-1.262-0.535-2.497,0.418-3.462,1.243c-0.162-0.35-0.246-1.422,0.014-1.751c0.86-1.088,3.487-1.415,5.081-0.294
	c-0.163-0.991-2.563-1.39-4.158-1.051c-2.997,2.032-5.227,8.156-3.931,8.655l1.012,0.39c1.217,0.469,2.285,0.413,3.492,0.091
	l2.69-0.716l0.254-0.892l0.917,0.192l0.646-3.101C256.629,62.676,256.157,61.39,255.632,61.167z"/>
<path d="M266.375,93.324c-2.346,0.611-5.125,0.465-7.522-0.179c-1.471-0.395-2.882-1.367-3.966-2.395
	c-1.439-1.364-1.294-3.595-0.277-5.328l1.981-3.375c0.241-0.41,0.954-1.118,1.321-1.432l1.758-1.505
	c0.567-0.485,1.918-0.396,2.644-0.555c0.98-0.214,1.814-0.325,2.707,0.112c1.701,0.833,3.488,1.379,5.297,1.886l2.133,1.224
	c1.653,0.949,2.454,2.809,2.241,4.617l-0.196,1.665l-0.644,2.675c-1.566,0.828-2.985,1.42-4.664,1.857L266.375,93.324z
	 M273.55,87.148l0.012-1.662c0.006-0.779-0.267-1.667-0.887-2.225c-0.613-0.551-1.255-1.139-1.974-1.429l-3.257-1.314l0.084,0.751
	l-2.097-0.414l-2.278-1.17l-2.971,2.36c0.089-1.357,0.938-1.653,1.721-2.38c-1.285-0.495-3.79,1.846-4.367,2.884l-1.744,3.137
	l-0.892,1.97c-0.233,0.514,0.224,1.783,0.621,2.153c0.383,0.355,1.108,0.957,1.507,1.128l2.5,1.069l1.746,0.305
	c1.052,0.184,2.066,0.277,3.054,0.073l1.252-0.257l2.389-0.584l3.137-0.993C272.761,90.024,273.538,88.872,273.55,87.148z"/>
<path d="M137.341,69.738c-1.516,0.013-0.773-2.777-1.503-4.876l-1.832,0.329l-3.718,1.357l-0.968-1.743l3.532-1.016l2.599-0.95
	c-0.338-0.383-0.668-0.803-0.847-0.911l-3.131-1.894c-0.517-0.313-0.854-0.78-0.807-1.372c0.494-0.037,1.465,0.052,1.867,0.283
	l3.348,1.924l0.147-3.042l0.276-0.953c0.167-1.225,0.518-2.135,1.164-3.347c0.146-0.026,0.726,0.272,0.879,0.492
	c0.153,0.219-0.101,0.752-0.219,1.087c-0.836,2.361-1.229,4.863-0.794,7.3l3.214-1.786l2.156-1.471
	c0.276,0.03,0.782,0.459,0.838,0.772c0.056,0.313-0.234,1.125-0.518,1.288l-4.119,2.366l4.532,3.028l2.493,1.495l-0.119,0.766
	c-0.03,0.19-0.77,0.343-0.971,0.219l-4.207-2.592l-1.483-0.669l-1.825-1.524l0.166,2.226l0.158,2.612
	C137.659,69.274,137.459,69.737,137.341,69.738z"/>
<path d="M242.512,89.833l-3.484-0.105c-1.255-0.038-2.435-0.821-3.429-1.556c-0.915-0.677-1.225-1.599-1.306-2.729l-0.085-1.182
	c-0.038-0.537-0.09-1.267,0.174-1.668c0.226-0.343,1.025-0.632,1.377-0.876l1.601-1.108l0.734-0.506
	c0.651-0.449,1.654-0.445,2.36-0.023c1.347-0.909,3.742-0.375,5.217,0.626c1.161,0.788,1.975,2.482,1.957,2.93l-0.134,3.319
	c-0.047,1.16-0.973,1.823-1.926,2.127l-2.016,0.644L242.512,89.833z M240.93,86.355c0.522-0.683,0.956-1.292,1.185-1.907
	l0.894-2.399c1.02,0.075,1.136,0.936,0.88,1.601l-0.938,2.433c-0.469,1.216-0.838,1.809-1.904,1.957
	c-0.106,0.015-0.085,0.371-0.057,0.53l1.963-0.398l1.615-0.735l0.954,0.147c0.549-0.727,1.169-1.642,1.187-2.549
	c0.016-0.846-0.056-2-0.567-2.577c-1.2-1.356-3.192-1.779-4.847-1.322c-1.687,0.466-3.24,0.94-4.711,1.903
	c-0.593,0.388-1.038,1.605-1.298,2.342c-0.602,1.704,1.821,2.738,4.041,2.918l-1.662-1.987c-0.25-0.3-0.042-1.231,0.258-1.605
	l0.963,1.408l0.64,0.116l-0.559-3.392c1.049,0.038,1.641,1.814,1.613,3.196C240.046,86.41,240.46,86.505,240.93,86.355z"/>
<path d="M121.948,93.632l2.94,1.162c0.462,0.183,1.409,0.306,2.017,0.399l-2.28-1.942c-0.812-0.692-1.839-2.77-2.059-4.24
	c0.433,0.146,0.808,0.355,0.937,0.56c0.958,1.531,2.02,2.777,3.422,3.851c0.366,0.28,1.278,0.358,1.695,0.352l2.502-0.035
	l1.519-1.593l2.328-1.801l1.349-1.086c0.358-0.288,0.899-0.687,1.391-0.609c0.37,0.058,0.633,1.161,0.331,1.43l-2.241,1.994
	c0.378,0.043,0.802-0.119,1.028-0.367c0.398-0.438,0.922-0.518,1.275-0.249c0.552,0.42,0.494,1.133-0.036,1.479
	c-0.524,0.341-1.33,0.797-1.676,1.15l-1.091,1.112l-2.372,2.968l-0.785,1.871l-0.937-1.921c-0.793-0.487-2.026-0.83-3.075-0.912
	c-2.084-0.164-3.992-0.779-5.691-1.968L121.948,93.632z M131.68,97.169l2.151-2.932l1.298-1.384
	c-1.327,0.411-2.156,1.528-3.037,2.513c-0.347,0.111-1.087,0.227-1.412,0.208l-0.919-0.053L131.68,97.169z"/>
<path d="M129.323,92.765c-0.468-1.112-0.821-2.267-1.653-2.955c-1.248-1.032-2.58-1.594-4.097-1.979
	c-0.191-0.213-0.693-0.787-0.761-1.082l-0.424-1.821l1.244-1.365c0.452-0.496,0.857-0.858,1.373-1.246l1.25-0.941l1.992-1.594
	l2.019-2.193c0.541,0.497,1.001,1.173,1.45,1.892l1.109,1.777c0.66,1.056,1.653,2.099,2.66,2.904l1.598,0.796
	c0.602,0.3,1.507,0.818,1.275,1.672c-0.167,0.615-1.17,1.129-1.666,1.535c-1.502,1.229-2.943,2.183-4.802,2.707l-1.544,1.349
	C130.085,92.448,129.583,92.74,129.323,92.765z M130.918,89.002c0.565-0.439,1.135-0.659,1.847-0.884
	c1.053-0.332,2.098-1.176,2.99-1.893l-1.23-1.165l-2.4-2.626l-1.636-2.587l-1.722,1.388l-3.423,3.077l-1.713,1.826
	c1.283,0.696,2.991,0.755,4.265,2.166l1.616,1.789L130.918,89.002z"/>
<path d="M343.984,42.353c-0.765-0.34-1.368-1.295-1.671-2.106c-0.326-0.873-0.204-1.661-0.103-2.601
	c0.119-1.11,0.464-2.23,1.378-2.964c3.185-0.692,4.264,2.082,6.103,2.326c0.765,0.102,1.085-1.063,1.402-1.521l1.044-1.51
	c1.164-0.638,2.203-0.397,3.19,0.202c1.34,0.813,2.279,1.797,2.556,3.509c0.118,0.73-0.51,1.965-1.266,2.285l-3.219,1.362
	c-0.733,0.31-1.97-0.253-2.545-0.688l-1.06-0.803l-3.07,1.884C345.95,42.204,345.005,42.807,343.984,42.353z M354.335,39.015
	l2.504-1.56c-0.64-1.7-2.384-2.899-3.855-2.168c0.73,1.055,0.503,2.361-0.646,2.864l-1.738,0.76
	C351.589,39.794,353.625,39.457,354.335,39.015z M348.533,37.866l-2.822-1.727c-0.292-0.179-1.206-0.198-1.422,0.035
	c-1.008,1.086-1.744,3.824-0.461,4.547C344.515,41.109,348.218,39.757,348.533,37.866z"/>
<path d="M411.401,41.937l-2.745,0.625c-1.181,0.269-2.524-0.082-3.391-0.98c-0.458-0.474-0.682-1.863-0.328-2.361l1.535-2.154
	l1.123-1.499l1.52-2.007l-0.804-0.993l-0.585,1.161l-1.174-0.097l0.702-1.963l-0.395-1.977l1.361,0.9
	c0.901-1.066,3.1-1.34,4.261-1.092c0.191,0.041,0.664,0.554,0.66,0.749c-0.005,0.235-0.231,0.536-0.454,0.854l-1.846,2.626
	l1.308,1.481l2.016,2.524c0.926-0.964,0.234-2.448,0.584-2.37l0.741,0.165c0.365,0.081,0.837,1.028,0.684,1.376l-0.904,2.057
	l1.303,1.657c0.135,0.171,0.213,0.645,0.145,0.833c-0.068,0.188-0.776,0.259-0.908,0.104l-1.393-1.647
	C413.489,40.586,412.475,41.693,411.401,41.937z M409.918,32.641l1.346-2.018c-1.078,0.193-1.572,0.431-2.27,0.903L409.918,32.641z
	 M412.349,39.93l0.887-1.434l-1.384-1.767l-1.737-2.182l-2.528,3.466l-1.661,2.678c0.921,0.284,1.861,0.402,2.793,0.164
	L412.349,39.93z"/>
<path d="M260.392,41.773c-1.294-1.24-2.221-0.878-3.454-2.052l-1.649,0.833l-2.949,2.03l-1.021,0.612l-0.773-1.463l1.887-1.242
	c0.293-0.193,0.646-0.568,0.883-0.664c0.553-0.226,0.975-0.413,1.319-0.674l1.199-0.91c0.068-0.261-0.178-1.318-0.302-1.537
	l-1.158,0.132c-0.318,0.036-1.296-1.165-0.96-1.462c0.525-0.462,1.78,0.424,1.905-0.12l0.304-1.318
	c-1.755-0.784-2.391-1.149-2.569-3.179c1.364,0.027,0.492,1.111,2.969,1.765l2.409,0.637l0.582-1.482
	c0.339,0.866,0.485,1.331,0.592,2.023l0.212,1.37c0.024,0.155,0.132,0.614,0.275,0.62l0.591,0.025l1.93-0.167l0.685,1.462
	c-1.262,0.615-2.721,0.044-2.753,0.382l-0.053,0.566l-0.405,1.911c1.565,1.887,3.543,1.543,2.772,3.61
	C261.843,42.929,261.1,42.452,260.392,41.773z"/>
<path d="M114.11,89.901c0.353,1.688,1.961,3.463,1.248,4.233c-0.15,0.162-0.613,0.319-0.838,0.314l-2.2-0.043l-4.333,0.044
	l-2.914,0.22l-1.016,0.161l-5.383,0.512l-1.547-0.017L95.006,95.4c-0.285,0.01-0.89-0.152-1.294-0.28
	c-0.135-1.363,0.033-2.599,0.047-3.976l0.028-2.754l-0.234-1.976l-0.104-2.849c0.817,0.793,0.948,1.448,1.068,2.328l0.264,1.938
	c0.281,2.063-0.015,3.675-0.419,5.905l3.383-0.171l2.827-0.135l7.36-0.794l3.333-0.012l2.776,0.218l-1.216-3.376
	c-0.216-0.598-0.393-1.583-0.378-2.244l0.039-1.757c1.317,0.315,0.936,1.137,1.083,1.84L114.11,89.901z"/>
<path d="M308.058,87.504c-2.015-0.254-3.343,1.006-3.897,0.272c-0.276-0.365-0.507-1.19-0.374-1.555
	c0.196-0.537,0.641-0.867,1.396-1.377l-1.412-1.779l-0.974-0.959c-0.432-0.425-0.55-1.653-0.587-2.422
	c1.738-1.72,5.633-2.941,7.096-1.557c2.07-0.093,4.135,0.757,4.965,2.888c-0.041,0.563-0.177,1.586-0.336,2.064l-0.981,2.937
	c-0.428,1.282-1.795,1.878-3.046,1.72L308.058,87.504z M312.866,80.739c-0.446-0.414-1.366-0.911-1.8-0.849l-1.662,0.237
	c-2.301,0.328-2.982,2.023-4.041,1.165c0.034-0.289,0.019-0.454,0.098-0.503l0.384-0.236l0.153-1.1l-2.792,1.367l1.418,1.686
	c0.848,1.008,1.622,1.939,2.088,3.2l1.755,0.229c0.778,0.102,1.901,0.218,2.597-0.177c0.731-0.414,0.916-1.397,1.092-2.116
	L312.866,80.739z"/>
<path d="M182.789,93.058c-0.106,0.183-0.761-0.201-0.713-0.435l0.178-0.861c0.364-1.097,1.144-1.879,2.157-2.408
	c-1.336-1.729-0.811-3.765,0.577-5.167c0.989-0.998,1.997-1.636,3.445-1.896l3.79-0.681c0.336-0.06,0.971,0.539,1.258,0.863
	l2.717-2.212l0.781-0.492c0.203-0.128,0.624,0.303,0.733,0.582l-3.533,3.004c1.013,1.366,1.379,3.063,0.775,4.608
	c-0.442,1.132-1.655,1.757-2.708,2.268c-2.329,1.13-4.257,1.145-6.59-0.237C184.486,90.554,183.596,91.667,182.789,93.058z
	 M185.359,88.556l2.353-1.642l0.97-0.693l4.014-3.003c-1.522-1.227-3.783-0.058-5.315,1.432l-1.493,1.452l-0.7-0.434
	C185.054,85.585,184.103,87.542,185.359,88.556z M193.709,88.044c1.056-1.268,0.523-3.029-0.413-3.934l-6.902,5.26
	C188.666,90.691,192.21,89.844,193.709,88.044z"/>
<path d="M160.767,85.893c-0.467,0.322-0.59,0.716-0.807,0.745c-0.874,0.116-0.671-1.376-1.697-2.225l-2.653-2.197
	c-0.191-0.158-0.492-0.631-0.712-0.587l-0.999,0.199l0.006,0.841l-1.025-0.015c-0.211-0.538-0.365-1.888,0.069-2.284l2.732-2.22
	l1.414-1.251l1.053-1.752c0.64,0.177,0.815,0.736,0.995,1.454c0.14,0.56,1.133,1.358,1.786,1.528l4.676,1.216l1.957,0.171
	l0.141,1.293l-1.381,0.793l-1.999,1.602l-1.723,1.426L160.767,85.893z M161.204,83.082l1.27-0.779l1.646-1.491
	c-1.378-0.364-2.625-0.495-3.71-1.222l-1.921-1.287l-1.319,1.1l-1.341,1.251l2.666,2.313l1.345,1.14L161.204,83.082z"/>
<path d="M103.86,61.889l3.355,0.303l-0.31-3.643c-0.081-0.957,0.025-2.146,0.316-2.998l1.038-3.034
	c-1.902-1.027-4.245-1.198-6.332-0.657l0.256,1.477l0.162,0.883c0.038,0.209-0.526,0.487-0.789,0.63
	c-0.198,0.841-0.538,2.317-0.415,3.163l0.341,2.353l-1.408-0.057l-0.424-2.207c-0.024-1.973,0.393-3.767,0.865-5.616l-0.061-1.021
	c1.272-0.341,2.694-0.769,3.955-0.62l3.133,0.37c0.769,0.091,1.805,0.858,2.155,1.592l-1.192,3.615
	c-0.141,0.427-0.185,1.438-0.138,1.882l0.337,3.191l0.359,2.153c-1.329,0.535-1.987-0.638-3.605-0.748l-2.954-0.202l-3.559-0.195
	l-1.791-0.296c-0.123-0.02-0.221-0.499-0.108-0.553l0.573-0.277l4.586,0.439L103.86,61.889z"/>
<path d="M83.161,62.441c0.599,0.57,0.735,1.107,0.712,1.835l0.169,1.277c0.204,1.541,0.41,3.171,1.046,4.597
	c0.082,0.231-0.613,0.839-0.876,0.752c-0.544-0.179-1.129-0.905-1.575-1.505c-0.517-0.21-1.641-0.119-2.316-0.013l-1.621,0.255
	l-3.105,0.18l-2.389,0.139l-4.334,0.364l-4.354,0.41c-0.199,0.019-0.89-0.422-0.892-0.593l-0.041-3.863l0.063-4.582
	c0.005-0.386,0.338-1.27,0.476-1.656l0.664,0.083c0.178,0.022,0.081,0.503,0.062,0.715l-0.186,2.029l-0.045,4.101
	c-0.006,0.544-0.17,1.43,0.134,2.01c0.243,0.462,1.606,0.313,2.02,0.125l2.709-0.238l1.461-0.234
	c1.332-0.213,2.764-0.035,4.18-0.132l2.036-0.139l2.571-0.243l2.061-0.168l1.552-0.13l-0.32-2.113l-0.172-1.912
	C82.82,63.466,83.017,62.795,83.161,62.441z"/>
<path d="M116.425,73.634l1.627,0.215l0.247-4.966l0.277-2.201l-2.413-0.117l-4.422-0.1l0.958,0.849
	c-0.374,4.192,1.779,6.532-1.268,5.59l-0.376-2.397c0.749-2.645-1.398-3.17-0.959-4.519c0.579-0.202,1.499-0.554,1.993-0.552
	l3.757,0.015l2.735,0.048l1.201,0.249c0.266,0.055,0.627,0.652,0.539,0.896c-0.309,0.858-0.438,2.088-0.483,3.013l-0.126,2.57
	l-0.296,1.893l-0.138,0.718c-0.041,0.214-0.716,0.308-0.961,0.257c-1.407-0.293-2.826-0.272-4.316-0.344l-2.972-0.142
	c-0.161-0.008-0.622-0.292-0.594-0.424l0.174-0.83l2.418,0.208L116.425,73.634z"/>
<path d="M74.027,65.671l0.071-4.349l0.375-3.205l0.179-2.547c-0.827,0.626-1.538,1.202-1.903,2.101
	c-0.633,1.561-1.23,3.149-2.578,2.926c-0.038-0.95,0.164-1.729,0.665-2.455l1.592-2.304c0.638-0.923,1.499-1.646,2.445-2.331
	l0.583-1.183l1.729,0.699c2.545,1.03,3.197,2.713,3.857,5.349l0.171,0.682c0.058,0.231-1.129,0.822-1.2,0.492l-0.131-0.611
	l-0.233-1.001c-0.456-1.956-1.651-3.704-3.637-3.432l-0.697,5.995C74.928,63.814,75.992,65.901,74.027,65.671z"/>
<path d="M120.468,61.703l-5.045,0.895c-0.517,0.092-1.468,0.009-1.846-0.237l-1.438-0.936l-0.353-1.23l0.267-2.739l0.145-3.47
	c0.008-0.201,0.207-0.836,0.392-0.783l0.814,0.233l2.374-0.202l3.55,0.098c0.396,0.011,1.16,0.533,1.423,0.829
	c-0.776,1.112-0.669,1.936-0.4,3.082l0.772,3.287C121.197,60.847,120.802,61.644,120.468,61.703z M118.145,61.159l1.504-0.317
	l-0.181-1.727l-0.416-1.995c-0.209-1.004-0.141-2.046,0.02-3.108l-1.73,0.03l-3.055,0.259c-0.417,0.035-0.738,0.953-0.761,1.384
	l-0.17,3.162l0.21,1.8C113.7,61.817,116.118,61.586,118.145,61.159z"/>
<path d="M101.695,75.214c-0.259-0.007-0.939-0.403-0.958-0.651c-0.019-0.248,0.088-0.583,0.195-1.044
	c0.38-1.645-0.066-4.436-0.945-5.142l-0.528-0.424c-0.127-0.102,0.136-0.564,0.298-0.575l3.357-0.227l2.271-0.188l1.746-0.072
	c0.418-0.017,0.658,0.922,0.695,1.337l0.5,5.627c0.078,0.873-0.568,1.518-1.537,1.492L101.695,75.214z M102.406,74.047l4.479,0.129
	c0.183-1.234-0.16-2.296-0.299-3.44l-0.35-2.879l-4.461,0.548l0.378,1.487c0.104,0.409,0.247,1.152,0.248,1.574L102.406,74.047z"/>
<path d="M459.273,88.829c0.341,0.164,0.254,1.342-0.085,1.459l-2.894,0.201l-2.625,0.359l-4.099-0.104
	c-0.246-0.48-0.74-1.279-0.673-1.695l0.567-3.479l0.405-1.695l0.927-2.519l0.783-2.129c0.594-0.167,1.225,1.264,0.845,2.336
	l-1.28,3.609l-0.471,1.495l-0.639,2.322l3.11-0.144l4.385-0.387C457.937,88.422,458.765,88.584,459.273,88.829z"/>
<path d="M156.208,87.796l-3.519-1.461l-0.475-1.573l1.859,0.441c1.512,0.359,2.78,1.283,4.002,2.231l1.492,1.158
	c0.086-0.299,0.276-1.182,0.534-1.308l2.955-1.445l1.721-0.979l2.251-1.475c0.843-0.01,1.224,1.641,0.718,1.935l-2.301,1.337
	l-2.19,1.241l-1.342,0.609c-0.317,0.144-1.006,0.674-1.082,0.851l0.665,1.527l-1.067,0.144l-2.115-1.923
	C157.693,88.541,156.965,88.111,156.208,87.796z"/>
<path d="M103.187,88.465l-0.552-3.748l0.013-1.062c-1.378,0.847-1.372,2.44-2.224,3.364l-1.043,1.131
	c-0.188,0.203-1.038-0.127-1.071-0.42c-0.095-0.853,0.126-2.43,0.731-3.011l3.013-2.891c1.007-0.967,0.331-1.815,0.832-2.82
	c0.075-0.15,0.478,0.211,0.556,0.379l0.815,1.752c-0.418,2.522,2.392,2.832,2.782,4.164c0.074,0.252-0.478,0.904-0.78,0.965
	l-2.51-2.137l0.065,1.596l0.229,1.924c0.016,0.137-0.015,0.558-0.125,0.591L103.187,88.465z"/>
<path d="M155.285,92.722c-1.454-0.583-2.439-2.217-2.806-3.759c1.197-0.484,0.792,1.238,2.506,2.088
	c1.684,0.835,3.421,1.198,5.311,1.378l4.863-3.131c1.593-1.026,1.166-2.567,2.081-1.446c0.662,0.811,0.34,1.836-0.372,2.458
	l-1.286,1.124l-1.63,0.999l-1.418,0.718l-1.899,1.165l-3.114-0.697L155.285,92.722z"/>
<path d="M284.126,41.291l-3.341-0.01c-0.941-0.003-1.636-0.63-1.857-1.512l3.759-0.087l-0.486-2.158l-0.186-2.318
	c-0.442,0.285-1.191,0.63-1.633,0.501c-0.276-0.081-0.49-0.991-0.356-1.175c0.589-0.344,1.87-0.904,2.105-1.521l0.93-2.432
	c0.172-0.065,0.976,0.271,0.994,0.516c0.076,1.031-0.498,2.372-0.926,3.407c-0.292,0.705,0.032,1.906,0.1,2.702
	c0.068,0.801,0.407,1.891,0.839,2.461l2.641-0.177c0.582-0.039,1.311,0.939,0.933,1.525c-0.461,0.242-1.515,0.181-2.127,0.087
	C285.189,41.049,284.52,41.292,284.126,41.291z"/>
<path d="M215.557,88.573l-1.959,0.054c-1.172-0.335-1.75-1.856-1.435-2.997c0.088-0.32,0.089-0.779,0.066-1.185l-1.244,0.289
	l-0.199-0.975c0.376-0.856,1.225-1.256,2.152-0.931c1.586-0.186,3.485-0.429,4.897,0.608c0.982,0.721,0.903,2.708,0.328,3.676
	C217.624,88.015,216.613,88.544,215.557,88.573z M213.928,87.207l1.83-0.348l1.527-0.562l0.335-1.277
	c0.053-0.201-0.558-0.53-0.746-0.53l-1.963,0.004l-0.577,1.616c-0.042,0.118-0.298,0.386-0.383,0.47
	c-0.085,0.084-0.268-0.339-0.279-0.457l-0.107-1.104l-0.553,1.159l-0.019,0.714C212.988,87.081,213.708,87.249,213.928,87.207z"/>
<path d="M303.937,39.858l-2.694-0.316l-0.837,2.323c-0.06,0.166-0.604,0.378-0.682,0.238l-0.491-0.876
	c-0.19-0.339,0.123-0.938,0.346-1.333c0.684-1.209,1.121-2.526,1.487-3.826l0.7-2.49c0.092-0.328,0.182-0.735,0.38-0.838
	c0.859-0.446,2.834,1.297,2.519,3.99c-0.1,0.851,0.185,1.638,0.73,2.369c-0.921,1.682,0.556,2.564,0.256,3.568
	c-0.047,0.159-0.467,0.159-0.65,0.084C304.569,41.983,304.216,41.153,303.937,39.858z M303.643,37.97
	c-0.062-1.287,0.025-2.462-0.847-3.791l-1.073,3.649L303.643,37.97z"/>
<path d="M327.61,43.364c-0.335-0.41-0.583-1.493-0.65-2.087l-0.2-1.785l-0.702-0.068l-2.437-3.653
	c-0.261,1.116-0.138,1.662-0.069,2.508l0.156,1.923l-0.76-0.05c-0.238-0.702-0.626-1.659-0.657-2.341l-0.204-4.446
	c0.457,0.088,1.053,0.34,1.247,0.588l1.863,2.38l0.293-3.161c1.318,0.557,1.418,1.486,1.678,2.513l0.379,1.494l0.576,4.645
	l0.109,0.993l0.047,0.447C328.288,43.35,327.665,43.431,327.61,43.364z"/>
<path d="M238.683,42.961l-2.048,1.458c-0.45-0.28-0.747-1.138-0.619-1.531c1.43-1.17,2.75-2.233,3.922-3.614
	c0.495-0.583,0.802-1.537,1.151-2.252c0.759-1.556-0.782-3.267-2.269-3.92l-3.094-1.359l0.116-1.489l3.725,1.661
	c1.079,0.481,1.887,1.449,2.442,2.614c0.88,1.85,0.219,3.173-0.674,4.959c-0.417,0.833-0.867,1.636-1.529,2.317L238.683,42.961z"/>
<path d="M275.215,41.559c-0.387-0.107-0.867-0.451-1.122-0.741c-0.757-1.172-1.028-2.222-0.888-3.624
	c-0.741-0.566-0.966-1.557-0.529-2.34l1.051-1.469c0.373-0.521,1.289-1.063,2.08-1.598c0.788,1.282,1.209,2.511,1.416,3.926
	l0.329,2.25c0.109,0.749,0.04,1.868-0.169,2.468C277.028,41.453,276.163,41.819,275.215,41.559z M276.102,39.847
	c1.012-1.437,0.406-4.267-0.281-6.359c-1.381,0.851-1.646,2.047-1.585,3.485l0.112,2.626
	C274.366,40.034,275.814,40.255,276.102,39.847z"/>
<path d="M335.904,38.75c0.385,0.424,0.755,1.204,0.715,1.655l-2.715,1.169c-0.632,0.272-1.397,0.586-2.157,0.501
	c-0.996-0.112-2.144-2.515-2.265-4.029l-0.34-4.256c0.143-0.018,0.766,0.341,0.813,0.602l0.416,2.284
	c0.253,1.39,0.236,2.641,0.904,3.73l2.632-0.803L335.904,38.75z"/>
<path d="M309.885,91.991l-2.044,0.033l-3.066,0.098c-0.373-0.007-0.079-1.218,0.12-1.283l-0.326-1.382l1.139-0.059l5.063-0.436
	c0.445-0.038,1.11,0.094,1.322,0.369c0.281,0.366-0.026,1.5-0.411,1.316c-0.677-0.324-1.141-0.472-1.678-0.421l-2.527,0.24l1.83,0.8
	C309.468,91.337,309.742,91.701,309.885,91.991z"/>
<path d="M229.161,42.606c-0.786,0.498-1.822,0.64-2.506,0.035l-0.605-1.824c-0.237-0.714-0.054-1.913,0.652-2.248
	c1.026,0.033,2.791,1.24,2.857,2.013C229.613,41.22,229.381,41.871,229.161,42.606z"/>
<path d="M58.892,51.419l-2.931,0.222c-1.729,0.131-3.377-0.116-5.223-0.206c-0.165-0.344-0.235-1.108-0.156-1.393l5.14,0.255
	l2.115-0.135c0.227-0.015,0.825,0.192,0.921,0.381C58.854,50.731,58.879,51.079,58.892,51.419z"/>
<path d="M310.047,42.483c-0.627-0.16-0.85-1.217-0.9-1.897l-0.289-3.966l-0.482-2.511c-0.086-0.448,0.002-0.97,0.441-1.187
	c0.557,0.572,0.874,1.326,1.009,2.098l0.742,6.544C310.63,41.641,310.253,42.426,310.047,42.483z"/>
<path d="M221.523,81.042c-1.488,0.274-2.434,0.259-2.519,1.574c-0.067,0.031-0.424,0.173-0.45,0.094l-0.206-0.609
	c-0.236-0.7-0.029-1.224,0.424-1.782c0.579-0.713,1.081-1.05,2.006-1.015l1.711,0.066c0.697,0.027,1.225,0.173,1.546,1.21
	L221.523,81.042z"/>
<path d="M234.293,37.096l-2.705,0.22l-0.661-1.603l2.584-0.181l1.952-0.231c0.528-0.062,1.421,0.737,0.962,1.242
	C236.02,36.985,234.894,37.047,234.293,37.096z"/>
<path d="M215.434,80.801c-0.052,0.511-0.322,1.104-0.697,1.002c-0.161-0.636-0.258-1.14-0.239-1.643l0.045-1.237l1.105-5.272
	c0.84,0.566,0.762,1.393,0.589,2.196l-0.565,2.624L215.434,80.801z"/>
<path d="M211.372,81.859c0.141,0.233-0.673,0.652-0.899,0.485c-0.445-0.329-1.112-0.674-1.573-0.856l-2.628-1.981
	c-0.281-0.212-0.498-0.804-0.585-1.322c1.054-0.3,1.608,0.116,2.267,0.942C209.1,80.561,210.626,80.626,211.372,81.859z"/>
<path d="M209.613,91.82l-1.535,0.768c-0.533-0.407-0.873-1.286-0.836-1.885c1.201-0.22,2.439-0.882,3.329-1.498
	c0.27-0.056,0.798,0.188,0.914,0.417c0.135,0.267,0.131,1.091-0.12,1.23L209.613,91.82z"/>
<path d="M209.651,86.212l-0.383,0.511c-0.093,0.124-0.529-0.071-0.717-0.104l-2.485-0.427c-0.481-0.083-0.748-1.304-0.75-1.82
	l2.322,0.416l1.6,0.26c0.18,0.029,0.552,0.286,0.608,0.457C209.901,85.677,209.758,86.069,209.651,86.212z"/>
<path d="M226.417,36.022l-0.88-1.365c-0.347-0.539,0.291-2.789,1.139-2.689c0.637,0.075,1.378,1.694,1.151,2.787
	C227.738,35.185,227.104,35.622,226.417,36.022z"/>
<path d="M221.961,86.049c2.615,1.053,2.554,2.432,2.112,2.346l-0.677-0.132l-1.306-0.52c-1.203-0.479-2.277-0.965-2.183-2.521
	L221.961,86.049z"/>
<path d="M218.046,94.041c0.014,0.208-0.114,0.679-0.27,0.663c-0.786-0.079-1.112-2.137-1.095-3.713l0.024-2.211
	c0.504,0.288,1.027,0.709,1.048,1.015l0.095,1.379L218.046,94.041z"/>
<path d="M262.258,33.79c-0.159,0.312-0.864,0.607-1.129,0.434c-0.388-0.252-0.518-0.957-0.258-1.271
	c0.399-0.482,0.67-0.855,0.81-1.349c0.111-0.39,0.622-1.158,0.97-0.992c0.602,0.287,0.582,1.267,0.356,1.711L262.258,33.79z"/>
<path d="M195.817,71.576l-0.113-1.447c-0.008-0.104,0.176-0.356,0.235-0.293l0.372,0.399
	C196.526,70.464,196.397,71.213,195.817,71.576z"/>
<path d="M42.654,81.5l-0.309,1.703c-0.032,0.176-0.532,0.395-0.677,0.287c-0.486-0.362-0.701-2.166-0.075-2.966
	c0.203-0.26,0.726-0.571,0.974-0.521c0.289,0.058,0.725,0.506,0.96,0.868L42.654,81.5z"/>
<path d="M437.882,39.198c-0.433,0.07-1.154,0.15-1.455,0.04l-1.45-0.533c-0.643-1.757,0.263-4.764,1.113-4.822
	c0.912-0.063,1.585,0.601,2.236,1.012l1.844,1.164l-0.778,0.56C438.474,37.28,437.62,37.763,437.882,39.198z M436.45,38.626l1.7-2.6
	l-1.222-0.758l-0.818,1.427L436.45,38.626z"/>
<path d="M433.644,38.006c-0.574,0.837-3.374,0.503-3.715-0.331l-0.575-1.408c0.373-0.949,1.049-1.61,2.011-1.85l0.904-0.226
	c0.201-0.05,0.453,0.551,0.62,0.715C433.659,35.663,434.464,36.811,433.644,38.006z M432.798,36.776
	c0.071-0.242-0.506-0.77-0.883-1.041l-0.643,1.245c-0.119,0.23,0.619,0.72,0.864,0.627
	C432.332,37.533,432.692,37.135,432.798,36.776z"/>
<path d="M426.768,37.645c-0.508,0.4-0.806,0.667-1.408,0.708l0.135-2.821l-0.464-0.847l1.867-0.473
	c0.438-0.111,1.417-0.119,1.859,0.024c0.604,0.627,0.061,1.794-0.535,2.263L426.768,37.645z M426.542,36.592l1.578-1.343
	c-0.926-0.141-1.388-0.112-1.902,0.009L426.542,36.592z"/>
<path d="M260.175,85.056c1.027-0.454,0.418,1.662,1.411,1.963l-0.478,0.199c-0.129,0.054-0.332,0.48-0.306,0.618l0.177,0.957
	c0.154,0.83,3.563,0.032,5.684-1.115c0.371-0.201,0.855-1.063,0.823-1.451l-0.125-1.505c1.031,0.451,1.356,1.225,1.334,2.047
	c-0.025,0.935-0.639,1.64-1.474,2.131c-2.143,1.259-5.103,2.394-6.846,1.157c-1.174-0.834-0.713-2.369-0.546-3.69
	C259.868,86.063,259.854,85.198,260.175,85.056z"/>
<path d="M263.484,85.504l-1.654,0.054c-0.485-0.963-0.274-1.979,0.331-2.645l1.219-0.058L263.484,85.504z"/>
<path d="M266.461,85.093l-0.928-0.046c-0.258-0.013-0.578-0.708-0.432-0.923l0.758-1.111c0.074-0.108,0.53-0.278,0.617-0.181
	c0.087,0.097,0.292,0.462,0.272,0.583L266.461,85.093z"/>
</svg>
